<svg width="31" height="30" viewBox="0 0 31 30" fill="none" xmlns="http://www.w3.org/2000/svg">
<path d="M15.4691 0.195984C7.26142 0.195984 0.607819 6.84958 0.607819 15.0573C0.607819 23.2649 7.26142 29.9185 15.4691 29.9185C23.6768 29.9185 30.3304 23.2649 30.3304 15.0573C30.3304 6.84958 23.6768 0.195984 15.4691 0.195984ZM15.4691 3.07236C22.0927 3.07236 27.454 8.43267 27.454 15.0573C27.454 21.6808 22.0937 27.0422 15.4691 27.0422C8.84552 27.0422 3.48419 21.6819 3.48419 15.0573C3.48419 8.43368 8.8445 3.07236 15.4691 3.07236ZM23.8707 10.8785L22.5203 9.51718C22.2406 9.23523 21.7853 9.23338 21.5034 9.5131L13.0329 17.9155L9.44992 14.3034C9.17025 14.0215 8.71494 14.0196 8.433 14.2993L7.07157 15.6497C6.78963 15.9294 6.78777 16.3847 7.0675 16.6667L12.5075 22.1508C12.7872 22.4327 13.2425 22.4346 13.5244 22.1548L23.8667 11.8955C24.1486 11.6158 24.1504 11.1605 23.8707 10.8785Z" fill="#F15822"/>
</svg>
