<svg width="23" height="30" viewBox="0 0 23 30" fill="none" xmlns="http://www.w3.org/2000/svg">
<path d="M9.40224 19.9017L9.39103 19.8905L7.55154 18.2697L9.39103 16.649C9.59292 16.4695 9.61536 16.1554 9.43589 15.9535L9.42468 15.9423L8.44885 14.8992C8.25817 14.6973 7.94411 14.6917 7.75343 14.8768L4.5175 17.9108C4.30999 18.1071 4.30999 18.438 4.5175 18.6287L7.75343 21.6627C7.84316 21.7468 7.96654 21.7973 8.08992 21.7973C8.22452 21.7973 8.35912 21.7412 8.44885 21.6403L9.42468 20.5971C9.60975 20.4009 9.59853 20.0868 9.40224 19.9017ZM21.7403 5.81391L17.035 1.10863C16.5303 0.60389 15.8461 0.317871 15.1338 0.317871H3.68748C2.20131 0.323479 0.995544 1.52924 0.995544 3.01542V26.3456C0.995544 27.8317 2.20131 29.0375 3.68748 29.0375H19.8391C21.3253 29.0375 22.5311 27.8317 22.5311 26.3456V7.7207C22.5311 7.00846 22.245 6.31865 21.7403 5.81391ZM15.3525 3.23414L19.6204 7.50198H15.3525V3.23414ZM19.8391 26.3456H3.68748V3.01542H12.6606V8.84795C12.6606 9.59384 13.2607 10.1939 14.0066 10.1939H19.8391V26.3456ZM12.7503 12.325C12.4868 12.2465 12.2176 12.3979 12.139 12.6615L9.07136 23.2106C8.99285 23.4741 9.14427 23.749 9.40785 23.8219L10.7763 24.22C11.0398 24.2986 11.3146 24.1415 11.3875 23.8835L14.4552 13.3289C14.5338 13.0653 14.3823 12.7905 14.1187 12.7176L12.7503 12.325ZM14.1244 16.6377L14.1356 16.649L15.9751 18.2697L14.1356 19.8905C13.9337 20.07 13.9112 20.384 14.0907 20.5859L14.1019 20.5971L15.0777 21.6403C15.2628 21.8366 15.5769 21.8478 15.7732 21.6627L19.0091 18.6287C19.2166 18.4324 19.2166 18.1015 19.0091 17.9108L15.7732 14.8768C15.5769 14.6917 15.2628 14.6973 15.0777 14.8992L14.1019 15.9423C13.9168 16.1386 13.9281 16.4527 14.1244 16.6377Z" fill="#F15822"/>
</svg>
