<svg width="27" height="25" viewBox="0 0 27 25" fill="none" xmlns="http://www.w3.org/2000/svg">
<path d="M25.8886 0.469391H0.40856C0.26556 0.469391 0.14856 0.592118 0.14856 0.742118V2.92394C0.14856 3.07394 0.26556 3.19666 0.40856 3.19666H25.8886C26.0316 3.19666 26.1486 3.07394 26.1486 2.92394V0.742118C26.1486 0.592118 26.0316 0.469391 25.8886 0.469391ZM25.8886 21.7421H0.40856C0.26556 21.7421 0.14856 21.8648 0.14856 22.0148V24.1967C0.14856 24.3467 0.26556 24.4694 0.40856 24.4694H25.8886C26.0316 24.4694 26.1486 24.3467 26.1486 24.1967V22.0148C26.1486 21.8648 26.0316 21.7421 25.8886 21.7421ZM25.8886 11.1058H0.40856C0.26556 11.1058 0.14856 11.2285 0.14856 11.3785V13.5603C0.14856 13.7103 0.26556 13.833 0.40856 13.833H25.8886C26.0316 13.833 26.1486 13.7103 26.1486 13.5603V11.3785C26.1486 11.2285 26.0316 11.1058 25.8886 11.1058Z" fill="white"/>
</svg>
