<svg width="25" height="29" viewBox="0 0 25 29" fill="none" xmlns="http://www.w3.org/2000/svg">
<path d="M17.5684 16.6544C15.9978 16.6544 15.2425 17.53 12.6649 17.53C10.0873 17.53 9.33755 16.6544 7.76143 16.6544C3.70072 16.6544 0.406189 19.9489 0.406189 24.0096V25.4106C0.406189 26.8609 1.58281 28.0375 3.03306 28.0375H22.2968C23.747 28.0375 24.9236 26.8609 24.9236 25.4106V24.0096C24.9236 19.9489 21.6291 16.6544 17.5684 16.6544ZM22.2968 25.4106H3.03306V24.0096C3.03306 21.4046 5.15645 19.2812 7.76143 19.2812C8.56043 19.2812 9.85745 20.1569 12.6649 20.1569C15.4943 20.1569 16.7639 19.2812 17.5684 19.2812C20.1734 19.2812 22.2968 21.4046 22.2968 24.0096V25.4106ZM12.6649 15.7787C17.0157 15.7787 20.5455 12.2489 20.5455 7.89813C20.5455 3.54737 17.0157 0.0175171 12.6649 0.0175171C8.31416 0.0175171 4.78431 3.54737 4.78431 7.89813C4.78431 12.2489 8.31416 15.7787 12.6649 15.7787ZM12.6649 2.64439C15.5599 2.64439 17.9187 5.0031 17.9187 7.89813C17.9187 10.7932 15.5599 13.1519 12.6649 13.1519C9.76989 13.1519 7.41118 10.7932 7.41118 7.89813C7.41118 5.0031 9.76989 2.64439 12.6649 2.64439Z" fill="#F15822"/>
</svg>
